<svg xmlns="http://www.w3.org/2000/svg" version="1.1" xmlns:xlink="http://www.w3.org/1999/xlink" xmlns:svgjs="http://svgjs.dev/svgjs" width="2000" height="1500" viewBox="0 0 2000 1500"><rect width="2000" height="1500" fill="#1b4571"></rect><g transform="matrix(0.49407114624505927,0,0,0.49407114624505927,506.8023067452861,250.4048582995951)"><svg viewBox="0 0 244 247" data-background-color="#1b4571" preserveAspectRatio="xMidYMid meet" height="2024" width="2000" xmlns="http://www.w3.org/2000/svg" xmlns:xlink="http://www.w3.org/1999/xlink"><g id="tight-bounds" transform="matrix(1,0,0,1,-0.21567999999999188,-0.09999999999999432)"><svg viewBox="0 0 244.43135999999998 247.2" height="247.2" width="244.43135999999998"><g><svg></svg></g><g><svg viewBox="0 0 244.43135999999998 247.2" height="247.2" width="244.43135999999998"><g transform="matrix(1,0,0,1,0,49.834107428571414)"><svg viewBox="0 0 244.43135999999998 147.53178514285716" height="147.53178514285716" width="244.43135999999998"><g><svg viewBox="0 0 244.43135999999998 147.53178514285716" height="147.53178514285716" width="244.43135999999998"><g><svg viewBox="0 0 244.43135999999998 147.53178514285716" height="147.53178514285716" width="244.43135999999998"><g><svg viewBox="0 0 244.43135999999998 147.53178514285716" height="147.53178514285716" width="244.43135999999998"><g><svg viewBox="0 0 244.43135999999998 147.53178514285716" height="147.53178514285716" width="244.43135999999998"><g><svg viewBox="0 0 244.43135999999998 147.53178514285716" height="147.53178514285716" width="244.43135999999998"><g transform="matrix(1,0,0,1,0,0)"><svg width="244.43135999999998" viewBox="2.5 -33.20000076293945 56 33.79999923706055" height="147.53178514285716" data-palette-color="#ffffff"><path d="M14.9 0.6L14.9 0.6Q11.6 0.6 8.38-0.58 5.15-1.75 2.5-4.1L2.5-4.1 6.75-9.15Q8.6-7.65 10.8-6.7 13-5.75 15.4-5.75L15.4-5.75Q17.8-5.75 18.9-6.55 20-7.35 20-8.6L20-8.6Q20-9.45 19.65-10.03 19.3-10.6 18.65-11.05 18-11.5 17.05-11.9 16.1-12.3 14.95-12.8L14.95-12.8 10.75-14.6Q9.4-15.1 8.13-15.9 6.85-16.7 5.9-17.78 4.95-18.85 4.38-20.28 3.8-21.7 3.8-23.5L3.8-23.5Q3.8-25.5 4.67-27.28 5.55-29.05 7.13-30.38 8.7-31.7 10.9-32.45 13.1-33.2 15.75-33.2L15.75-33.2Q18.75-33.2 21.55-32.1 24.35-31 26.6-28.9L26.6-28.9 22.85-24.25Q21.15-25.5 19.45-26.18 17.75-26.85 15.35-26.85L15.35-26.85Q13.5-26.85 12.38-26.1 11.25-25.35 11.25-23.9L11.25-23.9Q11.25-22.45 12.73-21.68 14.2-20.9 16.6-20.05L16.6-20.05 20.55-18.35Q23.8-17.15 25.68-15.05 27.55-12.95 27.55-9.5L27.55-9.5Q27.55-7.45 26.7-5.63 25.85-3.8 24.25-2.43 22.65-1.05 20.3-0.23 17.95 0.6 14.9 0.6ZM47.8 0.6L47.8 0.6Q44.75 0.6 42.02-0.48 39.3-1.55 37.22-3.65 35.15-5.75 33.92-8.88 32.7-12 32.7-16.1L32.7-16.1Q32.7-20.15 33.9-23.33 35.1-26.5 37.2-28.7 39.3-30.9 42.15-32.05 45-33.2 48.25-33.2L48.25-33.2Q51.35-33.2 53.85-31.93 56.35-30.65 58-29.05L58-29.05 53.95-24.5Q52.8-25.55 51.42-26.2 50.05-26.85 48.25-26.85L48.25-26.85Q46.5-26.85 45.05-26.13 43.6-25.4 42.52-24.05 41.45-22.7 40.85-20.75 40.25-18.8 40.25-16.35L40.25-16.35Q40.25-11.3 42.55-8.53 44.85-5.75 48.55-5.75L48.55-5.75Q50.3-5.75 51.77-6.55 53.25-7.35 54.45-8.65L54.45-8.65 58.5-4.2Q54.45 0.6 47.8 0.6Z" opacity="1" transform="matrix(1,0,0,1,0,0)" fill="#ffffff" class="undefined-text-0" data-fill-palette-color="primary" id="text-0"></path></svg></g></svg></g></svg></g></svg></g><g></g></svg></g></svg></g></svg></g><path d="M0 43.834L0 1 244.431 1 244.431 43.834 231.127 43.834 231.127 14.305 13.305 14.305 13.305 43.834 0 43.834M0 203.366L0 246.2 244.431 246.2 244.431 203.366 231.127 203.366 231.127 232.895 13.305 232.895 13.305 203.366 0 203.366" fill="#ffffff" stroke="transparent" data-fill-palette-color="primary"></path></svg></g><defs></defs></svg><rect width="244.43135999999998" height="247.2" fill="none" stroke="none" visibility="hidden"></rect></g></svg></g></svg>